0
SECTION
2
HEADER
9
$INSUNITS
70
4
9
$ACADVER
1
AC1014
9
$HANDSEED
5
FFFF
0
ENDSEC
0
SECTION
2
TABLES
0
TABLE
2
VPORT
5
8
100
AcDbSymbolTable
0
ENDTAB
0
TABLE
2
LTYPE
5
5
100
AcDbSymbolTable
0
LTYPE
5
14
100
AcDbSymbolTableRecord
100
AcDbLinetypeTableRecord
2
BYBLOCK
70
0
0
LTYPE
5
15
100
AcDbSymbolTableRecord
100
AcDbLinetypeTableRecord
2
BYLAYER
70
0
0
ENDTAB
0
TABLE
2
LAYER
5
2
100
AcDbSymbolTable
70
2
0
LAYER
5
50
100
AcDbSymbolTableRecord
100
AcDbLayerTableRecord
2
0
70
0
6
CONTINUOUS
0
ENDTAB
0
TABLE
2
STYLE
5
3
100
AcDbSymbolTable
70
1
0
STYLE
5
11
100
AcDbSymbolTableRecord
100
AcDbTextStyleTableRecord
2
STANDARD
70
0
0
ENDTAB
0
TABLE
2
VIEW
5
6
100
AcDbSymbolTable
70
0
0
ENDTAB
0
TABLE
2
UCS
5
7
100
AcDbSymbolTable
70
0
0
ENDTAB
0
TABLE
2
APPID
5
9
100
AcDbSymbolTable
70
2
0
APPID
5
12
100
AcDbSymbolTableRecord
100
AcDbRegAppTableRecord
2
ACAD
70
0
0
ENDTAB
0
TABLE
2
DIMSTYLE
5
A
100
AcDbSymbolTable
70
1
0
ENDTAB
0
TABLE
2
BLOCK_RECORD
5
1
100
AcDbSymbolTable
70
1
0
BLOCK_RECORD
5
1F
100
AcDbSymbolTableRecord
100
AcDbBlockTableRecord
2
*MODEL_SPACE
0
BLOCK_RECORD
5
1B
100
AcDbSymbolTableRecord
100
AcDbBlockTableRecord
2
*PAPER_SPACE
0
ENDTAB
0
ENDSEC
0
SECTION
2
BLOCKS
0
BLOCK
5
20
100
AcDbEntity
100
AcDbBlockBegin
2
*MODEL_SPACE
0
ENDBLK
5
21
100
AcDbEntity
100
AcDbBlockEnd
0
BLOCK
5
1C
100
AcDbEntity
100
AcDbBlockBegin
2
*PAPER_SPACE
0
ENDBLK
5
1D
100
AcDbEntity
100
AcDbBlockEnd
0
ENDSEC
0
SECTION
2
ENTITIES
0
LWPOLYLINE
5
100
100
AcDbEntity
8
0
100
AcDbPolyline
90
2
70
1
43
0.0
10
0
20
-110
10
-2.2078138385958755e-11
20
-119.99860559585713
0
SPLINE
5
101
100
AcDbEntity
8
0
100
AcDbSpline
70
4
71
5
72
21
73
15
74
0
42
0.000000001
43
0.0000000001
44
0.0000000001
40
0
40
0
40
0
40
0
40
0
40
0
40
0.10000000000000001
40
0.20000000000000001
40
0.30000000000000004
40
0.40000000000000002
40
0.5
40
0.59999999999999998
40
0.69999999999999996
40
0.79999999999999993
40
0.89999999999999991
40
1
40
1
40
1
40
1
40
1
40
1
41
1
41
1
41
1
41
1
41
1
41
1
41
1
41
1
41
1
41
1
41
1
41
1
41
1
41
1
41
1
10
100
20
120.0000003486002
30
0
10
101.51695218351746
20
115.20000033480443
30
0
10
104.41838183928972
20
105.60000030780489
30
0
10
108.3731143686485
20
91.200000269081144
30
0
10
112.83808552207657
20
72.000000221062493
30
0
10
116.98122778676958
20
48.00000016748524
30
0
10
119.55777927742497
20
24.000000120949249
30
0
10
120.43989427158635
20
8.2048534078005275e-08
30
0
10
119.55777928016488
20
-23.999999948886011
30
0
10
116.98122779119602
20
-47.99999997215609
30
0
10
112.83808552676275
20
-71.999999988327801
30
0
10
108.37311437225668
20
-91.199999996043459
30
0
10
104.41838184137083
20
-105.59999999907578
30
0
10
101.51695218426383
20
-115.19999999989268
30
0
10
100
20
-120
30
0
0
LWPOLYLINE
5
102
100
AcDbEntity
8
0
100
AcDbPolyline
90
2
70
1
43
0.0
10
-99.09288446947626
20
95.016733600285278
10
-99.092885379194541
20
95.016563097508907
0
LINE
5
103
100
AcDbEntity
8
0
100
AcDbLine
10
-89.999911157608651
20
70.244949842098265
30
0
11
-20.001057513250494
21
69.871470657073743
31
0
0
LINE
5
104
100
AcDbEntity
8
0
100
AcDbLine
10
-99.09288446947626
20
95.016733600285278
30
0
11
-99.092885379194541
21
95.016563097508907
31
0
0
LINE
5
105
100
AcDbEntity
8
0
100
AcDbLine
10
-54.627534877642731
20
-69.999970456696644
30
0
11
-19.999081220268444
21
-69.999992042908289
31
0
0
LINE
5
106
100
AcDbEntity
8
0
100
AcDbLine
10
-19.998165352272533
20
-119.84178762539861
30
0
11
-19.998162470396462
21
-119.99860559585711
31
0
0
LINE
5
107
100
AcDbEntity
8
0
100
AcDbLine
10
94.448724429198236
20
-70.000000000006054
30
0
11
20.000000000000018
21
-69.999999999999986
31
0
0
CIRCLE
5
108
100
AcDbEntity
8
0
100
AcDbCircle
10
-59.996387139252441
20
-1.4828925617187704e-11
30
0
40
9.5618410837397612
210
0
220
0
230
1
0
CIRCLE
5
109
100
AcDbEntity
8
0
100
AcDbCircle
10
59.996387139250224
20
8.2746738057510872e-12
30
0
40
9.5618410837397612
210
0
220
0
230
1
0
LINE
5
110
100
AcDbEntity
8
0
100
AcDbLine
10
-120.00000002540327
20
50.077147703913312
30
0
11
-120.00000002540327
21
-50
31
0
0
LINE
5
111
100
AcDbEntity
8
0
100
AcDbLine
10
-120.00000002540327
20
-50
30
0
11
-116.30519546859011
21
-50.000000000239694
31
0
0
LINE
5
112
100
AcDbEntity
8
0
100
AcDbLine
10
-116.29446192754374
20
50.06285398343536
30
0
11
-120.00000002540327
21
50.077147703913312
31
0
0
SPLINE
5
113
100
AcDbEntity
8
0
100
AcDbSpline
70
4
71
5
72
14
73
8
74
0
42
0.000000001
43
0.0000000001
44
0.0000000001
40
0
40
0
40
0
40
0
40
0
40
0
40
0.10000000000000001
40
0.20000000000000001
40
0.29135857788808317
40
0.29135857788808317
40
0.29135857788808317
40
0.29135857788808317
40
0.29135857788808317
40
0.29135857788808317
41
1
41
1
41
1
41
1
41
1
41
1
41
1
41
1
10
-99.999999999999972
20
119.97772192836572
30
0
10
-101.51697478152994
20
115.17860503357338
30
0
10
-104.41844489730099
20
105.58033303269866
30
0
10
-108.25930751299056
20
91.597527302445911
30
0
10
-111.52855436975331
20
77.614556700013594
30
0
10
-114.18850968609587
20
63.631410358514572
30
0
10
-115.65787032615575
20
54.447475050222934
30
0
10
-116.29446192754372
20
50.062853983435346
30
0
0
SPLINE
5
114
100
AcDbEntity
8
0
100
AcDbSpline
70
4
71
5
72
16
73
10
74
0
42
0.000000001
43
0.0000000001
44
0.0000000001
40
0
40
0
40
0
40
0
40
0
40
0
40
0.20000000000000001
40
0.40000000000000002
40
0.60000000000000009
40
0.80000000000000004
40
1
40
1
40
1
40
1
40
1
40
1
41
1
41
1
41
1
41
1
41
1
41
1
41
1
41
1
41
1
41
1
10
-116.30519546859011
20
-50.000000000239694
30
0
10
-115.89964264837265
20
-52.797441715043746
30
0
10
-115.01935187315948
20
-58.393071167866459
30
0
10
-113.49154702018133
20
-66.788751403405769
30
0
10
-111.09694882389446
20
-77.986846909680139
30
0
10
-107.70705757783892
20
-91.988743298846572
30
0
10
-104.80048663302873
20
-103.19235940656205
30
0
10
-102.54703351155197
20
-111.59586430638126
30
0
10
-101.01417697988779
20
-117.19853037485919
30
0
10
-100.24010688848389
20
-119.99994581089251
30
0
0
LINE
5
115
100
AcDbEntity
8
0
100
AcDbLine
10
-99.092884398978342
20
95.016671447564235
30
0
11
-99.092885379194541
21
95.016563097508907
31
0
0
SPLINE
5
116
100
AcDbEntity
8
0
100
AcDbSpline
70
4
71
5
72
21
73
15
74
0
42
0.000000001
43
0.0000000001
44
0.0000000001
40
0
40
0
40
0
40
0
40
0
40
0
40
0.10000000000000001
40
0.20000000000000001
40
0.30000000000000004
40
0.40000000000000002
40
0.5
40
0.59999999999999998
40
0.69999999999999996
40
0.79999999999999993
40
0.89999999999999991
40
1
40
1
40
1
40
1
40
1
40
1
41
1
41
1
41
1
41
1
41
1
41
1
41
1
41
1
41
1
41
1
41
1
41
1
41
1
41
1
41
1
10
-90
20
120
30
0
10
-90.689228816518522
20
119.00022273051533
30
0
10
-92.00755246408464
20
117.00108873629929
30
0
10
-93.804641756653268
20
114.00364933580818
30
0
10
-95.833979421778736
20
110.00961492878861
30
0
10
-97.717797665253073
20
105.02154025751287
30
0
10
-98.890220864984087
20
100.03825368314664
30
0
10
-99.292899183795015
20
95.060084982817003
30
0
10
-98.893478794365535
20
90.087222444828186
30
0
10
-97.723063182708643
20
85.119485725606864
30
0
10
-95.839548389729487
20
80.156548104952222
30
0
10
-93.808910362601694
20
76.189782777127476
30
0
10
-92.009977731338282
20
73.216628140445636
30
0
10
-90.69004184750591
20
71.235368667374075
30
0
10
-89.999911157608651
20
70.244949842098265
30
0
0
LINE
5
117
100
AcDbEntity
8
0
100
AcDbLine
10
-99.999999999999972
20
119.97772192836572
30
0
11
-90
21
120
31
0
0
LINE
5
118
100
AcDbEntity
8
0
100
AcDbLine
10
-20.000014982774065
20
120.00000000031109
30
0
11
20.000000000000028
21
119.99999999999999
31
0
0
SPLINE
5
119
100
AcDbEntity
8
0
100
AcDbSpline
70
4
71
5
72
21
73
15
74
0
42
0.000000001
43
0.0000000001
44
0.0000000001
40
0
40
0
40
0
40
0
40
0
40
0
40
0.10000000000000001
40
0.20000000000000001
40
0.30000000000000004
40
0.40000000000000002
40
0.5
40
0.59999999999999998
40
0.69999999999999996
40
0.79999999999999993
40
0.89999999999999991
40
1
40
1
40
1
40
1
40
1
40
1
41
1
41
1
41
1
41
1
41
1
41
1
41
1
41
1
41
1
41
1
41
1
41
1
41
1
41
1
41
1
10
-20.000014982774065
20
120.00000000031109
30
0
10
-19.626575212533968
20
118.95483985042601
30
0
10
-18.91201827009586
20
116.86820562958897
30
0
10
-17.937146347090575
20
113.74931204436335
30
0
10
-16.834471781236211
20
109.61327084213272
30
0
10
-15.807273715553347
20
104.48326403832141
30
0
10
-15.163569495031133
20
99.396990989488231
30
0
10
-14.936197405813431
20
94.358196583786651
30
0
10
-15.145816966164908
20
89.369236838970835
30
0
10
-15.77876882270543
20
84.428554038216262
30
0
10
-16.804592413743411
20
79.532674449783045
30
0
10
-17.914522393323075
20
75.648959344198346
30
0
10
-18.899453953237991
20
72.753562345414295
30
0
10
-19.622744565552441
20
70.830900697907055
30
0
10
-20.001057513250494
20
69.871470657073743
30
0
0
SPLINE
5
120
100
AcDbEntity
8
0
100
AcDbSpline
70
4
71
5
72
21
73
15
74
0
42
0.000000001
43
0.0000000001
44
0.0000000001
40
0
40
0
40
0
40
0
40
0
40
0
40
0.10000000000000001
40
0.20000000000000001
40
0.30000000000000004
40
0.40000000000000002
40
0.5
40
0.59999999999999998
40
0.69999999999999996
40
0.79999999999999993
40
0.89999999999999991
40
1
40
1
40
1
40
1
40
1
40
1
41
1
41
1
41
1
41
1
41
1
41
1
41
1
41
1
41
1
41
1
41
1
41
1
41
1
41
1
41
1
10
89.999985017225839
20
120.00000611635136
30
0
10
90.69067799169764
20
118.99810511735487
30
0
10
92.011274364311078
20
116.995176979646
30
0
10
93.809805911279014
20
113.99340608196427
30
0
10
95.837750634118279
20
109.99557551345197
30
0
10
97.717520203483247
20
105.00207698440987
30
0
10
98.887282934960098
20
100.00802048692007
30
0
10
99.291583069403302
20
95.009789422232245
30
0
10
98.899124361286411
20
90.005858437669687
30
0
10
97.738260415869888
20
84.998302282711535
30
0
10
95.861555291512261
20
79.991255609730786
30
0
10
93.82934374584616
20
75.989867399100746
30
0
10
92.022959738489874
20
72.993061576163186
30
0
10
90.694946743508183
20
70.997330567962138
30
0
10
90
20
69.999999999999986
30
0
0
SPLINE
5
121
100
AcDbEntity
8
0
100
AcDbSpline
70
4
71
5
72
21
73
15
74
0
42
0.000000001
43
0.0000000001
44
0.0000000001
40
0
40
0
40
0
40
0
40
0
40
0
40
0.10000000000000001
40
0.20000000000000001
40
0.30000000000000004
40
0.40000000000000002
40
0.5
40
0.59999999999999998
40
0.69999999999999996
40
0.79999999999999993
40
0.89999999999999991
40
1
40
1
40
1
40
1
40
1
40
1
41
1
41
1
41
1
41
1
41
1
41
1
41
1
41
1
41
1
41
1
41
1
41
1
41
1
41
1
41
1
10
19.999999999999986
20
120.0000013031615
30
0
10
19.626560297844229
20
118.95484112894961
30
0
10
18.912003491334687
20
116.86820686156453
30
0
10
17.937131771501914
20
113.74931321283334
30
0
10
16.834457475079599
20
109.61327193877175
30
0
10
15.807259743578184
20
104.48326506804621
30
0
10
15.163555854388493
20
99.39699197728055
30
0
10
14.936184093410436
20
94.358197556767394
30
0
10
15.1458039787552
20
89.369237825606717
30
0
10
15.778756157144132
20
84.428555066084229
30
0
10
16.804580067111921
20
79.532675544475723
30
0
10
17.91451029968648
20
75.648960511194645
30
0
10
18.899442048214784
20
72.753563576571509
30
0
10
19.622732785776208
20
70.830901976181224
30
0
10
20.001045795973926
20
69.871471959992164
30
0
0
LINE
5
122
100
AcDbEntity
8
0
100
AcDbLine
10
100
20
120.0000003486002
30
0
11
89.999985017225839
21
120.00000611635136
31
0
0
SPLINE
5
123
100
AcDbEntity
8
0
100
AcDbSpline
70
4
71
5
72
21
73
15
74
0
42
0.000000001
43
0.0000000001
44
0.0000000001
40
0
40
0
40
0
40
0
40
0
40
0
40
0.10000000000000001
40
0.20000000000000001
40
0.30000000000000004
40
0.40000000000000002
40
0.5
40
0.59999999999999998
40
0.69999999999999996
40
0.79999999999999993
40
0.89999999999999991
40
1
40
1
40
1
40
1
40
1
40
1
41
1
41
1
41
1
41
1
41
1
41
1
41
1
41
1
41
1
41
1
41
1
41
1
41
1
41
1
41
1
10
19.961431315090273
20
-119.96785022760622
30
0
10
19.58832759766803
20
-118.92257006566375
30
0
10
18.874441574069397
20
-116.83570621268599
30
0
10
17.900572469092651
20
-113.71649935378782
30
0
10
16.799227754970076
20
-109.58010384013035
30
0
10
15.773679110875435
20
-104.44976704300986
30
0
10
15.131610231110193
20
-99.363287297209055
30
0
10
14.905858196087349
20
-94.324420048653295
30
0
10
15.117081765511307
20
-89.335527957297302
30
0
10
15.751622087535541
20
-84.395048914725038
30
0
10
16.779019718895878
20
-79.499499395882225
30
0
10
17.890198309500025
20
-75.616141348946627
30
0
10
18.876060728890629
20
-72.721061169000421
30
0
10
19.599969466266923
20
-70.798632168853018
30
0
10
19.978590864506288
20
-69.839323810479826
30
0
0
LINE
5
124
100
AcDbEntity
8
0
100
AcDbLine
10
89.977500136881872
20
-69.990352920735234
30
0
11
19.978590864506316
21
-69.839323810479868
31
0
0
SPLINE
5
125
100
AcDbEntity
8
0
100
AcDbSpline
70
4
71
5
72
21
73
15
74
0
42
0.000000001
43
0.0000000001
44
0.0000000001
40
0
40
0
40
0
40
0
40
0
40
0
40
0.10000000000000001
40
0.20000000000000001
40
0.30000000000000004
40
0.40000000000000002
40
0.5
40
0.59999999999999998
40
0.69999999999999996
40
0.79999999999999993
40
0.89999999999999991
40
1
40
1
40
1
40
1
40
1
40
1
41
1
41
1
41
1
41
1
41
1
41
1
41
1
41
1
41
1
41
1
41
1
41
1
41
1
41
1
41
1
10
89.961412714325505
20
-119.99035619551024
30
0
10
90.652427707960555
20
-118.98867727790019
30
0
10
91.973667842746437
20
-116.98617376285513
30
0
10
93.773164204597137
20
-113.98498118067947
30
0
10
95.802393918679044
20
-109.98780273512791
30
0
10
97.68376855183881
20
-104.99490875959162
30
0
10
98.855136566002699
20
-100.00122858027412
30
0
10
99.261043361932423
20
-95.003127767774757
30
0
10
98.870193183187567
20
-89.999070907025924
30
0
10
97.710938967716345
20
-84.991141863443445
30
0
10
95.835843445061712
20
-79.983492189961979
30
0
10
93.804918244190986
20
-75.981450937882968
30
0
10
91.999497651121914
20
-72.984064614193784
30
0
10
90.672126252319671
20
-70.987906824792915
30
0
10
89.977500136881872
20
-69.990352920735234
30
0
0
SPLINE
5
126
100
AcDbEntity
8
0
100
AcDbSpline
70
4
71
5
72
21
73
15
74
0
42
0.000000001
43
0.0000000001
44
0.0000000001
40
0
40
0
40
0
40
0
40
0
40
0
40
0.10000000000000001
40
0.20000000000000001
40
0.30000000000000004
40
0.40000000000000002
40
0.5
40
0.59999999999999998
40
0.69999999999999996
40
0.79999999999999993
40
0.89999999999999991
40
1
40
1
40
1
40
1
40
1
40
1
41
1
41
1
41
1
41
1
41
1
41
1
41
1
41
1
41
1
41
1
41
1
41
1
41
1
41
1
41
1
10
-90.038563001378918
20
-119.93248956106842
30
0
10
-90.727470402191244
20
-118.93249079575158
30
0
10
-92.045151357976863
20
-116.93293313889362
30
0
10
-93.841277031755993
20
-113.93491622965
30
0
10
-95.869330717718114
20
-109.9402297080931
30
0
10
-97.751545461936331
20
-104.95154975383498
30
0
10
-98.922366735253433
20
-99.967886584396638
30
0
10
-99.323444803510114
20
-94.989588741611072
30
0
10
-98.922425899375739
20
-90.016854917485489
30
0
10
-97.750413455006083
20
-85.04949476560401
30
0
10
-95.865303414433271
20
-80.087162945847666
30
0
10
-93.833390383191045
20
-76.121050640435485
30
0
10
-92.033502143127407
20
-73.148474470715939
30
0
10
-90.712929470649883
20
-71.167639421503623
30
0
10
-90.022480457404527
20
-70.177442503245345
30
0
0
SPLINE
5
127
100
AcDbEntity
8
0
100
AcDbSpline
70
4
71
5
72
21
73
15
74
0
42
0.000000001
43
0.0000000001
44
0.0000000001
40
0
40
0
40
0
40
0
40
0
40
0
40
0.10000000000000001
40
0.20000000000000001
40
0.30000000000000004
40
0.40000000000000002
40
0.5
40
0.59999999999999998
40
0.69999999999999996
40
0.79999999999999993
40
0.89999999999999991
40
1
40
1
40
1
40
1
40
1
40
1
41
1
41
1
41
1
41
1
41
1
41
1
41
1
41
1
41
1
41
1
41
1
41
1
41
1
41
1
41
1
10
-20.038581600678064
20
-119.9549909696443
30
0
10
-19.664805885166466
20
-118.90995091793121
30
0
10
-18.949578235010144
20
-116.82354650273771
30
0
10
-17.973703798744211
20
-113.70496645525959
30
0
10
-16.869699763690424
20
-109.56927992505098
30
0
10
-15.84085271425751
20
-104.43960358431868
30
0
10
-15.195513549077432
20
-99.353537727333048
30
0
10
-14.966521758104419
20
-94.314816689991602
30
0
10
-15.174537616571651
20
-89.325789850864084
30
0
10
-15.805901269569343
20
-84.384903882291582
30
0
10
-16.830151037158632
20
-79.488694840292794
30
0
10
-17.938832543018602
20
-75.604623184396772
30
0
10
-18.922833325797747
20
-72.708909754446083
30
0
10
-19.645505858696595
20
-70.786015720577467
30
0
10
-20.023510376364584
20
-69.826464128420952
30
0
0
LINE
5
128
100
AcDbEntity
8
0
100
AcDbLine
10
-90.022480457404527
20
-70.177442503245345
30
0
11
-20.023510376364584
21
-69.826464128420952
31
0
0
LINE
5
129
100
AcDbEntity
8
0
100
AcDbLine
10
-100.24010688848389
20
-119.99994581089251
30
0
11
-90.038563001378918
21
-119.93248956106842
31
0
0
LINE
5
130
100
AcDbEntity
8
0
100
AcDbLine
10
100
20
-120
30
0
11
89.961412714325505
21
-119.99035619551024
31
0
0
LINE
5
131
100
AcDbEntity
8
0
100
AcDbLine
10
-20.038581600678064
20
-119.9549909696443
30
0
11
20.000000000000028
21
-119.99860559585711
31
0
0
SPLINE
5
132
100
AcDbEntity
8
0
100
AcDbSpline
70
4
71
5
72
12
73
6
74
0
42
0.000000001
43
0.0000000001
44
0.0000000001
40
0
40
0
40
0
40
0
40
0
40
0
40
0.0011488845371558838
40
0.0011488845371558838
40
0.0011488845371558838
40
0.0011488845371558838
40
0.0011488845371558838
40
0.0011488845371558838
41
1
41
1
41
1
41
1
41
1
41
1
10
-19.998162470396462
20
-119.99860559585711
30
0
10
-19.988972311696603
20
-119.98989274561541
30
0
10
-19.979782152748236
20
-119.98118426627777
30
0
10
-19.970591993551356
20
-119.97248015784263
30
0
10
-19.961401834105963
20
-119.96378042031324
30
0
10
-19.952211674412062
20
-119.9550850536977
30
0
0
SPLINE
5
133
100
AcDbEntity
8
0
100
AcDbSpline
70
4
71
5
72
12
73
6
74
0
42
0.000000001
43
0.0000000001
44
0.0000000001
40
0.99895796198675646
40
0.99895796198675646
40
0.99895796198675646
40
0.99895796198675646
40
0.99895796198675646
40
0.99895796198675646
40
1
40
1
40
1
40
1
40
1
40
1
41
1
41
1
41
1
41
1
41
1
41
1
10
19.958318149789179
20
-119.95912924676092
30
0
10
19.966654519422487
20
-119.96701732534015
30
0
10
19.974990889260226
20
-119.97490899954312
30
0
10
19.983327259302396
20
-119.98280426936445
30
0
10
19.991663629548995
20
-119.99070313480206
30
0
10
20.000000000000028
20
-119.99860559585711
30
0
0
LINE
5
134
100
AcDbEntity
8
0
100
AcDbLine
10
20.000000000000018
20
69.999999999999986
30
0
11
19.95059431534569
21
69.999736392572316
31
0
0
CIRCLE
5
135
100
AcDbEntity
8
0
100
AcDbCircle
10
39.524702951383595
20
65.475577735444674
30
0
40
1.5000000000000036
210
0
220
0
230
1
0
LINE
5
136
100
AcDbEntity
8
0
100
AcDbLine
10
20.000000000000018
20
69.999999999999986
30
0
11
90
21
69.999999999999986
31
0
0
CIRCLE
5
137
100
AcDbEntity
8
0
100
AcDbCircle
10
39.524702951383595
20
59.475577735444674
30
0
40
1.500000000000004
210
0
220
0
230
1
0
CIRCLE
5
138
100
AcDbEntity
8
0
100
AcDbCircle
10
39.524702951383595
20
53.475577735444674
30
0
40
1.5000000000000013
210
0
220
0
230
1
0
CIRCLE
5
139
100
AcDbEntity
8
0
100
AcDbCircle
10
70.477388640564271
20
65.475577735444674
30
0
40
1.5000000000000036
210
0
220
0
230
1
0
CIRCLE
5
140
100
AcDbEntity
8
0
100
AcDbCircle
10
70.477388640564271
20
59.475577735444674
30
0
40
1.500000000000004
210
0
220
0
230
1
0
CIRCLE
5
141
100
AcDbEntity
8
0
100
AcDbCircle
10
70.477388640564271
20
53.475577735444674
30
0
40
1.5000000000000013
210
0
220
0
230
1
0
LINE
5
142
100
AcDbEntity
8
0
100
AcDbLine
10
-6.8002492525920388e-10
20
-119.9768192964959
30
0
11
-2.2078138385958755e-11
21
-119.99860559585713
31
0
0
CIRCLE
5
143
100
AcDbEntity
8
0
100
AcDbCircle
10
39.524702951383595
20
-65.475577735444674
30
0
40
1.5000000000000036
210
0
220
0
230
1
0
CIRCLE
5
144
100
AcDbEntity
8
0
100
AcDbCircle
10
39.524702951383595
20
-59.475577735444674
30
0
40
1.500000000000004
210
0
220
0
230
1
0
CIRCLE
5
145
100
AcDbEntity
8
0
100
AcDbCircle
10
39.524702951383595
20
-53.475577735444674
30
0
40
1.5000000000000013
210
0
220
0
230
1
0
CIRCLE
5
146
100
AcDbEntity
8
0
100
AcDbCircle
10
70.477388640564271
20
-65.475577735444674
30
0
40
1.5000000000000036
210
0
220
0
230
1
0
CIRCLE
5
147
100
AcDbEntity
8
0
100
AcDbCircle
10
70.477388640564271
20
-59.475577735444674
30
0
40
1.500000000000004
210
0
220
0
230
1
0
CIRCLE
5
148
100
AcDbEntity
8
0
100
AcDbCircle
10
70.477388640564271
20
-53.475577735444674
30
0
40
1.5000000000000013
210
0
220
0
230
1
0
CIRCLE
5
149
100
AcDbEntity
8
0
100
AcDbCircle
10
-39.52470295064137
20
65.475577735892728
30
0
40
1.5000000000000036
210
0
220
0
230
1
0
CIRCLE
5
150
100
AcDbEntity
8
0
100
AcDbCircle
10
-39.52470295070939
20
59.475577735892728
30
0
40
1.500000000000004
210
0
220
0
230
1
0
CIRCLE
5
151
100
AcDbEntity
8
0
100
AcDbCircle
10
-39.524702950777396
20
53.475577735892728
30
0
40
1.5000000000000013
210
0
220
0
230
1
0
CIRCLE
5
152
100
AcDbEntity
8
0
100
AcDbCircle
10
-70.477388639822038
20
65.475577736243608
30
0
40
1.5000000000000036
210
0
220
0
230
1
0
CIRCLE
5
153
100
AcDbEntity
8
0
100
AcDbCircle
10
-70.477388639890052
20
59.475577736243608
30
0
40
1.500000000000004
210
0
220
0
230
1
0
CIRCLE
5
154
100
AcDbEntity
8
0
100
AcDbCircle
10
-70.477388639958065
20
53.475577736243608
30
0
40
1.5000000000000013
210
0
220
0
230
1
0
CIRCLE
5
155
100
AcDbEntity
8
0
100
AcDbCircle
10
-39.524702951989795
20
-53.475577734996627
30
0
40
1.5000000000000013
210
0
220
0
230
1
0
CIRCLE
5
156
100
AcDbEntity
8
0
100
AcDbCircle
10
-39.524702952057801
20
-59.475577734996619
30
0
40
1.500000000000004
210
0
220
0
230
1
0
CIRCLE
5
157
100
AcDbEntity
8
0
100
AcDbCircle
10
-39.524702952125821
20
-65.475577734996619
30
0
40
1.5000000000000036
210
0
220
0
230
1
0
CIRCLE
5
158
100
AcDbEntity
8
0
100
AcDbCircle
10
-70.477388641170478
20
-53.475577734645739
30
0
40
1.5000000000000013
210
0
220
0
230
1
0
CIRCLE
5
159
100
AcDbEntity
8
0
100
AcDbCircle
10
-70.477388641238491
20
-59.475577734645739
30
0
40
1.500000000000004
210
0
220
0
230
1
0
CIRCLE
5
160
100
AcDbEntity
8
0
100
AcDbCircle
10
-70.477388641306504
20
-65.475577734645739
30
0
40
1.5000000000000036
210
0
220
0
230
1
0
ENDSEC
0
SECTION
2
OBJECTS
0
DICTIONARY
5
C
100
AcDbDictionary
3
ACAD_GROUP
350
D
3
ACAD_MLINESTYLE
350
17
0
DICTIONARY
5
D
100
AcDbDictionary
0
DICTIONARY
5
1A
330
C
100
AcDbDictionary
0
DICTIONARY
5
17
100
AcDbDictionary
0
ENDSEC
0
EOF
